<svg xmlns="http://www.w3.org/2000/svg" version="1.1" xmlns:xlink="http://www.w3.org/1999/xlink" xmlns:svgjs="http://svgjs.com/svgjs" width="800" height="1000" preserveAspectRatio="none" viewBox="0 0 800 1000">
    <g mask="url(&quot;#SvgjsMask1156&quot;)" fill="none">
        <rect width="800" height="1000" x="0" y="0" fill="rgba(165, 2, 231, 1)"></rect>
        <path d="M0,390.846C71.964,390.06,111,305.793,172.499,268.414C236.225,229.682,327.838,231.039,367.169,167.681C406.875,103.719,380.564,21.298,372.356,-53.537C363.866,-130.942,366.285,-214.499,318.505,-275.986C269.878,-338.564,188.712,-361.58,113.524,-386.627C35.823,-412.511,-47.976,-453.073,-124.354,-423.512C-200.131,-394.184,-224.343,-301.676,-273.377,-236.883C-318.57,-177.166,-392.377,-132.053,-401.206,-57.685C-410.004,16.421,-360.993,84.041,-318.783,145.583C-281.905,199.351,-226.615,232.452,-174.939,272.21C-117.942,316.062,-71.91,391.632,0,390.846" fill="#6b0196"></path>
        <path d="M800 1398.491C881.906 1406.84 971.335 1418.882 1040.819 1374.721 1110.38 1330.51 1144.685 1246.535 1164.835 1166.614 1182.909 1094.9279999999999 1148.705 1023.903 1147.909 949.978 1146.95 860.874 1211.164 761.066 1159.685 688.331 1109.1100000000001 616.874 998.412 633.5 912.395 617.219 835.085 602.586 756.906 574.025 681.935 597.9069999999999 607.623 621.579 559.994 688.881 507.207 746.293 452.8 805.467 386.925 859.655 369.186 938.058 350.893 1018.909 368.826 1106.1 409.453 1178.357 448.468 1247.748 519.4449999999999 1289.554 588.794 1328.643 654.727 1365.806 724.705 1390.816 800 1398.491" fill="#c63dfd"></path>
    </g>
    <defs>
        <mask id="SvgjsMask1156">
            <rect width="800" height="1000" fill="#ffffff"></rect>
        </mask>
    </defs>
</svg>