<svg xmlns="http://www.w3.org/2000/svg" xmlns:xlink="http://www.w3.org/1999/xlink" width="200" zoomAndPan="magnify" viewBox="0 0 150 60" height="80" preserveAspectRatio="xMidYMid meet" version="1.0"><defs><g/><clipPath id="7a4e2286a5"><path d="M 53 13 L 110.203125 13 L 110.203125 35.441406 L 53 35.441406 Z M 53 13 " clip-rule="nonzero"/></clipPath><clipPath id="b75b4d530d"><path d="M 58 34 L 61 34 L 61 35.441406 L 58 35.441406 Z M 58 34 " clip-rule="nonzero"/></clipPath><clipPath id="0a6af86477"><path d="M 39.703125 16 L 105 16 L 105 35.441406 L 39.703125 35.441406 Z M 39.703125 16 " clip-rule="nonzero"/></clipPath></defs><g clip-path="url(#7a4e2286a5)"><path fill="#a1ee8f" d="M 90.785156 16.152344 C 78.085938 10.691406 64.035156 12.863281 53.726562 20.625 C 63.558594 14.894531 75.871094 13.742188 87.125 18.582031 C 95.269531 22.082031 101.527344 28.148438 105.363281 35.4375 L 110.191406 35.4375 C 106.527344 27.078125 99.8125 20.035156 90.785156 16.152344 " fill-opacity="1" fill-rule="nonzero"/></g><g clip-path="url(#b75b4d530d)"><path fill="#9e9e9e" d="M 58.601562 35.246094 L 60.363281 35.246094 L 60.363281 34.695312 L 58.601562 34.695312 L 58.601562 35.246094 " fill-opacity="1" fill-rule="nonzero"/></g><g clip-path="url(#0a6af86477)"><path fill="#9e9e9e" d="M 104.324219 35.4375 C 97.898438 24.226562 85.839844 16.679688 72.023438 16.679688 C 58.207031 16.679688 46.144531 24.226562 39.71875 35.4375 L 44.535156 35.4375 C 48.246094 30.433594 53.175781 26.394531 58.882812 23.757812 L 58.882812 34.695312 L 60.082031 34.695312 L 60.082031 23.230469 C 63.796875 21.675781 67.8125 20.703125 72.023438 20.433594 L 72.023438 31.003906 L 71.742188 31.003906 L 71.742188 31.558594 L 73.503906 31.558594 L 73.503906 31.003906 L 73.222656 31.003906 L 73.222656 20.378906 C 73.621094 20.363281 74.023438 20.359375 74.429688 20.359375 C 77.710938 20.359375 80.890625 20.785156 83.917969 21.582031 L 83.917969 28.332031 L 83.636719 28.332031 L 83.636719 28.886719 L 85.402344 28.886719 L 85.402344 28.332031 L 85.117188 28.332031 L 85.117188 21.921875 C 92.890625 24.253906 99.597656 29.0625 104.324219 35.4375 " fill-opacity="1" fill-rule="nonzero"/></g><g fill="#9e9e9e" fill-opacity="1"><g transform="translate(8.558932, 45.883028)"><g><path d="M 8.09375 0 C 8.789062 0 9.382812 -0.242188 9.875 -0.734375 C 10.363281 -1.234375 10.609375 -1.832031 10.609375 -2.53125 L 9.609375 -2.53125 C 9.609375 -2.113281 9.457031 -1.753906 9.15625 -1.453125 C 8.863281 -1.160156 8.507812 -1.015625 8.09375 -1.015625 L 3.375 -1.015625 C 2.957031 -1.015625 2.597656 -1.160156 2.296875 -1.453125 C 2.003906 -1.753906 1.859375 -2.113281 1.859375 -2.53125 L 1.859375 -5.625 C 1.859375 -6.039062 2.003906 -6.394531 2.296875 -6.6875 C 2.597656 -6.988281 2.957031 -7.140625 3.375 -7.140625 L 8.09375 -7.140625 C 8.507812 -7.140625 8.863281 -6.988281 9.15625 -6.6875 C 9.457031 -6.394531 9.609375 -6.039062 9.609375 -5.625 L 10.609375 -5.625 C 10.609375 -6.3125 10.363281 -6.898438 9.875 -7.390625 C 9.382812 -7.890625 8.789062 -8.140625 8.09375 -8.140625 L 3.375 -8.140625 C 2.675781 -8.140625 2.078125 -7.890625 1.578125 -7.390625 C 1.085938 -6.898438 0.84375 -6.3125 0.84375 -5.625 L 0.84375 -2.53125 C 0.84375 -1.832031 1.085938 -1.234375 1.578125 -0.734375 C 2.078125 -0.242188 2.675781 0 3.375 0 Z M 8.09375 0 "/></g></g></g><g fill="#9e9e9e" fill-opacity="1"><g transform="translate(20.025486, 45.883028)"><g><path d="M 11.703125 0 L 10.484375 0 L 9.25 -1.84375 L 2.625 -1.84375 L 1.390625 0 L 0.171875 0 L 5.671875 -8.140625 L 6.203125 -8.140625 Z M 8.5625 -2.84375 L 5.9375 -6.734375 L 3.3125 -2.84375 Z M 8.5625 -2.84375 "/></g></g></g><g fill="#9e9e9e" fill-opacity="1"><g transform="translate(31.906425, 45.883028)"><g><path d="M 12.46875 0 L 11.453125 0 L 11.453125 -6.078125 L 7.0625 0 L 6.546875 0 L 2.140625 -6.078125 L 2.140625 0 L 1.140625 0 L 1.140625 -8.140625 L 1.890625 -8.140625 L 6.796875 -1.359375 L 11.703125 -8.140625 L 12.46875 -8.140625 Z M 12.46875 0 "/></g></g></g><g fill="#9e9e9e" fill-opacity="1"><g transform="translate(45.507347, 45.883028)"><g><path d="M 2.140625 0 L 1.140625 0 L 1.140625 -8.140625 L 9.046875 -8.140625 C 9.554688 -8.140625 9.992188 -7.957031 10.359375 -7.59375 C 10.722656 -7.238281 10.90625 -6.804688 10.90625 -6.296875 L 10.90625 -4.90625 C 10.90625 -4.394531 10.722656 -3.957031 10.359375 -3.59375 C 9.992188 -3.238281 9.554688 -3.0625 9.046875 -3.0625 L 2.140625 -3.0625 Z M 9.046875 -4.0625 C 9.273438 -4.0625 9.472656 -4.144531 9.640625 -4.3125 C 9.804688 -4.476562 9.890625 -4.675781 9.890625 -4.90625 L 9.890625 -6.296875 C 9.890625 -6.523438 9.804688 -6.71875 9.640625 -6.875 C 9.472656 -7.039062 9.273438 -7.125 9.046875 -7.125 L 2.140625 -7.125 L 2.140625 -4.0625 Z M 9.046875 -4.0625 "/></g></g></g><g fill="#9e9e9e" fill-opacity="1"><g transform="translate(57.257726, 45.883028)"><g><path d="M 8.09375 0 C 8.789062 0 9.382812 -0.242188 9.875 -0.734375 C 10.363281 -1.234375 10.609375 -1.832031 10.609375 -2.53125 L 10.609375 -8.140625 L 9.609375 -8.140625 L 9.609375 -2.53125 C 9.609375 -2.113281 9.457031 -1.753906 9.15625 -1.453125 C 8.863281 -1.160156 8.507812 -1.015625 8.09375 -1.015625 L 3.375 -1.015625 C 2.957031 -1.015625 2.597656 -1.160156 2.296875 -1.453125 C 2.003906 -1.753906 1.859375 -2.113281 1.859375 -2.53125 L 1.859375 -8.140625 L 0.84375 -8.140625 L 0.84375 -2.53125 C 0.84375 -1.832031 1.085938 -1.234375 1.578125 -0.734375 C 2.078125 -0.242188 2.675781 0 3.375 0 Z M 8.09375 0 "/></g></g></g><g fill="#9e9e9e" fill-opacity="1"><g transform="translate(68.72428, 45.883028)"><g><path d="M 8.765625 0 L 2.703125 0 C 2.191406 0 1.753906 -0.175781 1.390625 -0.53125 C 1.023438 -0.894531 0.84375 -1.332031 0.84375 -1.84375 L 1.859375 -1.84375 C 1.859375 -1.613281 1.941406 -1.414062 2.109375 -1.25 C 2.273438 -1.09375 2.472656 -1.015625 2.703125 -1.015625 L 8.765625 -1.015625 C 8.992188 -1.015625 9.191406 -1.09375 9.359375 -1.25 C 9.523438 -1.414062 9.609375 -1.613281 9.609375 -1.84375 L 9.609375 -2.71875 C 9.609375 -2.957031 9.523438 -3.15625 9.359375 -3.3125 C 9.191406 -3.476562 8.992188 -3.5625 8.765625 -3.5625 L 2.703125 -3.5625 C 2.191406 -3.5625 1.753906 -3.742188 1.390625 -4.109375 C 1.023438 -4.472656 0.84375 -4.910156 0.84375 -5.421875 L 0.84375 -6.296875 C 0.84375 -6.804688 1.023438 -7.238281 1.390625 -7.59375 C 1.753906 -7.957031 2.191406 -8.140625 2.703125 -8.140625 L 8.765625 -8.140625 C 9.273438 -8.140625 9.707031 -7.957031 10.0625 -7.59375 C 10.425781 -7.238281 10.609375 -6.804688 10.609375 -6.296875 L 9.609375 -6.296875 C 9.609375 -6.523438 9.523438 -6.71875 9.359375 -6.875 C 9.191406 -7.039062 8.992188 -7.125 8.765625 -7.125 L 2.703125 -7.125 C 2.472656 -7.125 2.273438 -7.039062 2.109375 -6.875 C 1.941406 -6.71875 1.859375 -6.523438 1.859375 -6.296875 L 1.859375 -5.421875 C 1.859375 -5.179688 1.941406 -4.976562 2.109375 -4.8125 C 2.273438 -4.65625 2.472656 -4.578125 2.703125 -4.578125 L 8.765625 -4.578125 C 9.273438 -4.578125 9.707031 -4.394531 10.0625 -4.03125 C 10.425781 -3.664062 10.609375 -3.226562 10.609375 -2.71875 L 10.609375 -1.84375 C 10.609375 -1.332031 10.425781 -0.894531 10.0625 -0.53125 C 9.707031 -0.175781 9.273438 0 8.765625 0 Z M 8.765625 0 "/></g></g></g><g fill="#9e9e9e" fill-opacity="1"><g transform="translate(80.190834, 45.883028)"><g><path d="M 9.046875 0 L 1.140625 0 L 1.140625 -8.140625 L 9.046875 -8.140625 C 9.554688 -8.140625 9.992188 -7.957031 10.359375 -7.59375 C 10.722656 -7.238281 10.90625 -6.804688 10.90625 -6.296875 L 10.90625 -5.421875 C 10.90625 -4.890625 10.707031 -4.4375 10.3125 -4.0625 C 10.707031 -3.695312 10.90625 -3.25 10.90625 -2.71875 L 10.90625 -1.84375 C 10.90625 -1.332031 10.722656 -0.894531 10.359375 -0.53125 C 9.992188 -0.175781 9.554688 0 9.046875 0 Z M 9.046875 -1.015625 C 9.273438 -1.015625 9.472656 -1.09375 9.640625 -1.25 C 9.804688 -1.414062 9.890625 -1.613281 9.890625 -1.84375 L 9.890625 -2.71875 C 9.890625 -2.945312 9.8125 -3.140625 9.65625 -3.296875 C 9.5 -3.460938 9.304688 -3.550781 9.078125 -3.5625 L 2.140625 -3.5625 L 2.140625 -1.015625 Z M 9.078125 -4.578125 C 9.304688 -4.585938 9.5 -4.671875 9.65625 -4.828125 C 9.8125 -4.992188 9.890625 -5.191406 9.890625 -5.421875 L 9.890625 -6.296875 C 9.890625 -6.523438 9.804688 -6.71875 9.640625 -6.875 C 9.472656 -7.039062 9.273438 -7.125 9.046875 -7.125 L 2.140625 -7.125 L 2.140625 -4.578125 Z M 9.078125 -4.578125 "/></g></g></g><g fill="#9e9e9e" fill-opacity="1"><g transform="translate(91.941213, 45.883028)"><g><path d="M 10.90625 0 L 9.890625 0 L 9.890625 -2.21875 C 9.890625 -2.445312 9.804688 -2.644531 9.640625 -2.8125 C 9.472656 -2.976562 9.273438 -3.0625 9.046875 -3.0625 L 2.140625 -3.0625 L 2.140625 0 L 1.140625 0 L 1.140625 -8.140625 L 9.046875 -8.140625 C 9.554688 -8.140625 9.992188 -7.957031 10.359375 -7.59375 C 10.722656 -7.238281 10.90625 -6.804688 10.90625 -6.296875 L 10.90625 -4.90625 C 10.90625 -4.375 10.707031 -3.925781 10.3125 -3.5625 C 10.707031 -3.195312 10.90625 -2.75 10.90625 -2.21875 Z M 9.046875 -4.0625 C 9.273438 -4.0625 9.472656 -4.144531 9.640625 -4.3125 C 9.804688 -4.476562 9.890625 -4.675781 9.890625 -4.90625 L 9.890625 -6.296875 C 9.890625 -6.523438 9.804688 -6.71875 9.640625 -6.875 C 9.472656 -7.039062 9.273438 -7.125 9.046875 -7.125 L 2.140625 -7.125 L 2.140625 -4.0625 Z M 9.046875 -4.0625 "/></g></g></g><g fill="#9e9e9e" fill-opacity="1"><g transform="translate(103.691592, 45.883028)"><g><path d="M 2.140625 0 L 2.140625 -8.140625 L 1.140625 -8.140625 L 1.140625 0 Z M 2.140625 0 "/></g></g></g><g fill="#9e9e9e" fill-opacity="1"><g transform="translate(106.972616, 45.883028)"><g><path d="M 8.375 0 C 9.070312 0 9.664062 -0.242188 10.15625 -0.734375 C 10.65625 -1.234375 10.90625 -1.832031 10.90625 -2.53125 L 10.90625 -5.625 C 10.90625 -6.3125 10.65625 -6.898438 10.15625 -7.390625 C 9.664062 -7.890625 9.070312 -8.140625 8.375 -8.140625 L 1.140625 -8.140625 L 1.140625 0 Z M 8.375 -1.015625 L 2.140625 -1.015625 L 2.140625 -7.140625 L 8.375 -7.140625 C 8.789062 -7.140625 9.144531 -6.988281 9.4375 -6.6875 C 9.738281 -6.394531 9.890625 -6.039062 9.890625 -5.625 L 9.890625 -2.53125 C 9.890625 -2.113281 9.738281 -1.753906 9.4375 -1.453125 C 9.144531 -1.160156 8.789062 -1.015625 8.375 -1.015625 Z M 8.375 -1.015625 "/></g></g></g><g fill="#9e9e9e" fill-opacity="1"><g transform="translate(118.722995, 45.883028)"><g><path d="M 8.09375 0 C 8.769531 0 9.363281 -0.242188 9.875 -0.734375 C 10.363281 -1.234375 10.609375 -1.832031 10.609375 -2.53125 L 10.609375 -3.390625 C 10.609375 -3.609375 10.53125 -3.796875 10.375 -3.953125 C 10.226562 -4.109375 10.039062 -4.1875 9.8125 -4.1875 L 5.734375 -4.1875 L 5.734375 -3.171875 L 9.609375 -3.171875 L 9.609375 -2.53125 C 9.609375 -2.125 9.457031 -1.765625 9.15625 -1.453125 C 8.851562 -1.160156 8.5 -1.015625 8.09375 -1.015625 L 3.375 -1.015625 C 2.957031 -1.015625 2.597656 -1.160156 2.296875 -1.453125 C 2.003906 -1.753906 1.859375 -2.113281 1.859375 -2.53125 L 1.859375 -5.625 C 1.859375 -6.039062 2.003906 -6.394531 2.296875 -6.6875 C 2.597656 -6.988281 2.957031 -7.140625 3.375 -7.140625 L 8.09375 -7.140625 C 8.507812 -7.140625 8.863281 -6.988281 9.15625 -6.6875 C 9.457031 -6.394531 9.609375 -6.039062 9.609375 -5.625 L 10.609375 -5.625 C 10.609375 -6.3125 10.363281 -6.898438 9.875 -7.390625 C 9.382812 -7.890625 8.789062 -8.140625 8.09375 -8.140625 L 3.375 -8.140625 C 2.675781 -8.140625 2.078125 -7.890625 1.578125 -7.390625 C 1.085938 -6.898438 0.84375 -6.3125 0.84375 -5.625 L 0.84375 -2.53125 C 0.84375 -1.832031 1.085938 -1.234375 1.578125 -0.734375 C 2.078125 -0.242188 2.675781 0 3.375 0 Z M 8.09375 0 "/></g></g></g><g fill="#9e9e9e" fill-opacity="1"><g transform="translate(130.189549, 45.883028)"><g><path d="M 10.390625 0 L 1.140625 0 L 1.140625 -8.140625 L 10.390625 -8.140625 L 10.390625 -7.140625 L 2.140625 -7.140625 L 2.140625 -4.578125 L 9.4375 -4.578125 L 9.4375 -3.5625 L 2.140625 -3.5625 L 2.140625 -1.015625 L 10.390625 -1.015625 Z M 10.390625 0 "/></g></g></g></svg>